<svg xmlns="http://www.w3.org/2000/svg" xmlns:xlink="http://www.w3.org/1999/xlink" aria-hidden="true" role="img" class="iconify iconify--logos" width="31.88" height="32" preserveAspectRatio="xMidYMid meet" viewBox="0 0 256 257"><defs><linearGradient id="IconifyId1813088fe1fbc01" x1="20.825%" x2="87.626%" y1="7.979%" y2="86.974%"><stop offset="0" stop-color="#41D1FF"></stop><stop offset="1" stop-color="#BD34FE"></stop></linearGradient><linearGradient id="IconifyId1813088fe1fbc02" x1="61.107%" x2="61.107%" y1="0%" y2="100%"><stop offset="0" stop-color="#FFEA79"></stop><stop offset="1" stop-color="#FFAD1F"></stop></linearGradient></defs><path fill="url(#IconifyId1813088fe1fbc01)" d="M255.153 37.937L137.472 244.625c-4.185 7.353-14.759 7.353-18.943 0L.848 37.937C-3.803 29.764 5.312 20.37 13.978 24.75l109.91 55.626c2.585 1.308 5.637 1.308 8.222 0l109.91-55.626c8.666-4.38 17.781 5.014 13.133 13.187z"></path><path fill="url(#IconifyId1813088fe1fbc02)" d="M135.08 44.43L40.78 228.877c-2.542 4.97-9.587 4.793-11.875-.296c0 0-4.093-9.102-1.341-23.738c2.753-14.636 14.916-39.73 14.916-39.73c2.784-5.46 9.765-5.228 12.22-.387l35.064 69.117c2.233 4.4 8.75 4.193 10.67-.387l83.693-199.23c2.784-6.63 11.731-5.918 13.52 1.077l15.968 62.463c1.789 6.994-5.074 12.593-10.742 8.766L135.08 44.43z"></path></svg>
